REM DIRINDEX 1\2,1\3,1\4,1\5,1\6
REM DIRNAME cjc030,folder01,folder02,folder03,folder04,folder05
TITLE ""
FILE "Disc4Track50.mp3" MP3
  TRACK 01 AUDIO
    TITLE "3:cjc030_07550"
    INDEX 01 00:00:00
  TRACK 02 AUDIO
    TITLE "0:"
    INDEX 01 00:01:11
  TRACK 03 AUDIO
    TITLE "4:cjc030_07551"
    INDEX 01 00:01:17
  TRACK 04 AUDIO
    TITLE "0:"
    INDEX 01 00:01:71
  TRACK 05 AUDIO
    TITLE "5:cjc030_07552"
    INDEX 01 00:02:04
  TRACK 06 AUDIO
    TITLE "0:"
    INDEX 01 00:03:17
  TRACK 07 AUDIO
    TITLE "6:cjc030_07553"
    INDEX 01 00:03:31
  TRACK 08 AUDIO
    TITLE "0:"
    INDEX 01 00:04:72
  TRACK 09 AUDIO
    TITLE "3:cjc030_07554"
    INDEX 01 00:05:48
  TRACK 10 AUDIO
    TITLE "0:"
    INDEX 01 00:06:49
  TRACK 11 AUDIO
    TITLE "4:cjc030_07555"
    INDEX 01 00:06:57
  TRACK 12 AUDIO
    TITLE "0:"
    INDEX 01 00:07:52
  TRACK 13 AUDIO
    TITLE "5:cjc030_07556"
    INDEX 01 00:07:62
  TRACK 14 AUDIO
    TITLE "0:"
    INDEX 01 00:08:62
  TRACK 15 AUDIO
    TITLE "3:cjc030_07557"
    INDEX 01 00:09:45
  TRACK 16 AUDIO
    TITLE "0:"
    INDEX 01 00:10:68
  TRACK 17 AUDIO
    TITLE "4:cjc030_07558"
    INDEX 01 00:11:01
  TRACK 18 AUDIO
    TITLE "0:"
    INDEX 01 00:12:12
  TRACK 19 AUDIO
    TITLE "5:cjc030_07559"
    INDEX 01 00:12:24
  TRACK 20 AUDIO
    TITLE "0:"
    INDEX 01 00:13:45
  TRACK 21 AUDIO
    TITLE "3:cjc030_07560"
    INDEX 01 00:14:27
  TRACK 22 AUDIO
    TITLE "0:"
    INDEX 01 00:15:44
  TRACK 23 AUDIO
    TITLE "4:cjc030_07561"
    INDEX 01 00:15:52
  TRACK 24 AUDIO
    TITLE "0:"
    INDEX 01 00:16:46
  TRACK 25 AUDIO
    TITLE "5:cjc030_07562"
    INDEX 01 00:16:55
  TRACK 26 AUDIO
    TITLE "0:"
    INDEX 01 00:17:70
  TRACK 27 AUDIO
    TITLE "6:cjc030_07563"
    INDEX 01 00:18:09
  TRACK 28 AUDIO
    TITLE "0:"
    INDEX 01 00:19:56
  TRACK 29 AUDIO
    TITLE "3:cjc030_07564"
    INDEX 01 00:20:30
  TRACK 30 AUDIO
    TITLE "0:"
    INDEX 01 00:21:37
  TRACK 31 AUDIO
    TITLE "4:cjc030_07565"
    INDEX 01 00:21:43
  TRACK 32 AUDIO
    TITLE "0:"
    INDEX 01 00:23:44
  TRACK 33 AUDIO
    TITLE "5:cjc030_07566"
    INDEX 01 00:23:51
  TRACK 34 AUDIO
    TITLE "0:"
    INDEX 01 00:24:55
  TRACK 35 AUDIO
    TITLE "3:cjc030_07567"
    INDEX 01 00:25:37
  TRACK 36 AUDIO
    TITLE "0:"
    INDEX 01 00:26:52
  TRACK 37 AUDIO
    TITLE "4:cjc030_07568"
    INDEX 01 00:26:58
  TRACK 38 AUDIO
    TITLE "0:"
    INDEX 01 00:28:25
  TRACK 39 AUDIO
    TITLE "5:cjc030_07569"
    INDEX 01 00:28:33
  TRACK 40 AUDIO
    TITLE "0:"
    INDEX 01 00:29:48
  TRACK 41 AUDIO
    TITLE "6:cjc030_07570"
    INDEX 01 00:29:62
  TRACK 42 AUDIO
    TITLE "0:"
    INDEX 01 00:36:25
  TRACK 43 AUDIO
    TITLE "3:cjc030_07571"
    INDEX 01 00:36:72
  TRACK 44 AUDIO
    TITLE "0:"
    INDEX 01 00:38:18
  TRACK 45 AUDIO
    TITLE "4:cjc030_07572"
    INDEX 01 00:38:26
  TRACK 46 AUDIO
    TITLE "0:"
    INDEX 01 00:39:27
  TRACK 47 AUDIO
    TITLE "5:cjc030_07573"
    INDEX 01 00:39:33
  TRACK 48 AUDIO
    TITLE "0:"
    INDEX 01 00:40:54
  TRACK 49 AUDIO
    TITLE "6:cjc030_07574"
    INDEX 01 00:40:70
  TRACK 50 AUDIO
    TITLE "0:"
    INDEX 01 00:47:01
  TRACK 51 AUDIO
    TITLE "3:cjc030_07575"
    INDEX 01 00:47:48
  TRACK 52 AUDIO
    TITLE "0:"
    INDEX 01 00:48:69
  TRACK 53 AUDIO
    TITLE "4:cjc030_07576"
    INDEX 01 00:49:04
  TRACK 54 AUDIO
    TITLE "0:"
    INDEX 01 00:50:19
  TRACK 55 AUDIO
    TITLE "5:cjc030_07577"
    INDEX 01 00:50:27
  TRACK 56 AUDIO
    TITLE "0:"
    INDEX 01 00:51:48
  TRACK 57 AUDIO
    TITLE "6:cjc030_07578"
    INDEX 01 00:51:62
  TRACK 58 AUDIO
    TITLE "0:"
    INDEX 01 00:55:57
  TRACK 59 AUDIO
    TITLE "3:cjc030_07579"
    INDEX 01 00:56:29
  TRACK 60 AUDIO
    TITLE "0:"
    INDEX 01 00:57:35
  TRACK 61 AUDIO
    TITLE "4:cjc030_07580"
    INDEX 01 00:57:41
  TRACK 62 AUDIO
    TITLE "0:"
    INDEX 01 00:59:39
  TRACK 63 AUDIO
    TITLE "5:cjc030_07581"
    INDEX 01 00:59:49
  TRACK 64 AUDIO
    TITLE "0:"
    INDEX 01 01:00:51
  TRACK 65 AUDIO
    TITLE "6:cjc030_07582"
    INDEX 01 01:00:64
  TRACK 66 AUDIO
    TITLE "0:"
    INDEX 01 01:02:34
  TRACK 67 AUDIO
    TITLE "3:cjc030_07583"
    INDEX 01 01:03:08
  TRACK 68 AUDIO
    TITLE "0:"
    INDEX 01 01:04:35
  TRACK 69 AUDIO
    TITLE "4:cjc030_07584"
    INDEX 01 01:04:41
  TRACK 70 AUDIO
    TITLE "0:"
    INDEX 01 01:05:42
  TRACK 71 AUDIO
    TITLE "5:cjc030_07585"
    INDEX 01 01:05:50
  TRACK 72 AUDIO
    TITLE "0:"
    INDEX 01 01:07:00
  TRACK 73 AUDIO
    TITLE "6:cjc030_07586"
    INDEX 01 01:07:15
  TRACK 74 AUDIO
    TITLE "0:"
    INDEX 01 01:11:25
  TRACK 75 AUDIO
    TITLE "3:cjc030_07587"
    INDEX 01 01:11:70
  TRACK 76 AUDIO
    TITLE "0:"
    INDEX 01 01:13:08
  TRACK 77 AUDIO
    TITLE "4:cjc030_07588"
    INDEX 01 01:13:16
  TRACK 78 AUDIO
    TITLE "0:"
    INDEX 01 01:14:37
  TRACK 79 AUDIO
    TITLE "5:cjc030_07589"
    INDEX 01 01:14:45
  TRACK 80 AUDIO
    TITLE "0:"
    INDEX 01 01:15:58
  TRACK 81 AUDIO
    TITLE "6:cjc030_07590"
    INDEX 01 01:15:72
  TRACK 82 AUDIO
    TITLE "0:"
    INDEX 01 01:19:05
  TRACK 83 AUDIO
    TITLE "3:cjc030_07591"
    INDEX 01 01:19:56
  TRACK 84 AUDIO
    TITLE "0:"
    INDEX 01 01:21:04
  TRACK 85 AUDIO
    TITLE "4:cjc030_07592"
    INDEX 01 01:21:10
  TRACK 86 AUDIO
    TITLE "0:"
    INDEX 01 01:22:13
  TRACK 87 AUDIO
    TITLE "5:cjc030_07593"
    INDEX 01 01:22:19
  TRACK 88 AUDIO
    TITLE "0:"
    INDEX 01 01:23:42
  TRACK 89 AUDIO
    TITLE "3:cjc030_07594"
    INDEX 01 01:24:26
  TRACK 90 AUDIO
    TITLE "0:"
    INDEX 01 01:25:35
  TRACK 91 AUDIO
    TITLE "4:cjc030_07595"
    INDEX 01 01:25:43
  TRACK 92 AUDIO
    TITLE "0:"
    INDEX 01 01:26:44
  TRACK 93 AUDIO
    TITLE "5:cjc030_07596"
    INDEX 01 01:26:56
  TRACK 94 AUDIO
    TITLE "0:"
    INDEX 01 01:27:63
  TRACK 95 AUDIO
    TITLE "3:cjc030_07597"
    INDEX 01 01:28:45
  TRACK 96 AUDIO
    TITLE "0:"
    INDEX 01 01:29:62
  TRACK 97 AUDIO
    TITLE "4:cjc030_07598"
    INDEX 01 01:29:70
  TRACK 98 AUDIO
    TITLE "0:"
    INDEX 01 01:31:06
  TRACK 99 AUDIO
    TITLE "5:cjc030_07599"
    INDEX 01 01:31:12
  TRACK 100 AUDIO
    TITLE "0:"
    INDEX 01 01:32:31
  TRACK 101 AUDIO
    TITLE "6:cjc030_07600"
    INDEX 01 01:32:43
  TRACK 102 AUDIO
    TITLE "0:"
    INDEX 01 01:34:20
